<svg width="30" height="32" viewBox="0 0 30 32" fill="none" xmlns="http://www.w3.org/2000/svg">
<path d="M9.90909 3.82488C4.38667 5.8885 0.454546 11.2123 0.454546 17.4545C0.454546 25.4878 6.96677 32 15 32C23.0332 32 29.5455 25.4878 29.5455 17.4545C29.5455 11.2123 25.6133 5.8885 20.0909 3.82488V6.98798C23.9662 8.8764 26.6364 12.8536 26.6364 17.4545C26.6364 23.8811 21.4266 29.0909 15 29.0909C8.57341 29.0909 3.36364 23.8811 3.36364 17.4545C3.36364 12.8536 6.03384 8.8764 9.90909 6.98798V3.82488Z" fill="#F0F0F0"/>
<path d="M13.5455 0H16.4545V15.2727H13.5455V0Z" fill="#F0F0F0"/>
</svg>
