<svg width="32" height="32" viewBox="0 0 32 32" fill="none" xmlns="http://www.w3.org/2000/svg">
<path fill-rule="evenodd" clip-rule="evenodd" d="M14.5455 32V26.1818H17.4545V32H14.5455Z" fill="#F0F0F0"/>
<path fill-rule="evenodd" clip-rule="evenodd" d="M14.5455 5.81819V0H17.4545V5.81819H14.5455Z" fill="#F0F0F0"/>
<path fill-rule="evenodd" clip-rule="evenodd" d="M22.2442 7.69877L26.2852 3.65774L28.3422 5.71478L24.3012 9.7558L22.2442 7.69877Z" fill="#F0F0F0"/>
<path fill-rule="evenodd" clip-rule="evenodd" d="M3.6578 26.2852L7.69874 22.2442L9.75578 24.3012L5.71485 28.3422L3.6578 26.2852Z" fill="#F0F0F0"/>
<path fill-rule="evenodd" clip-rule="evenodd" d="M26.2852 28.3422L22.2442 24.3013L24.3012 22.2442L28.3422 26.2851L26.2852 28.3422Z" fill="#F0F0F0"/>
<path fill-rule="evenodd" clip-rule="evenodd" d="M7.69877 9.7558L3.65774 5.71478L5.71478 3.65774L9.7558 7.69877L7.69877 9.7558Z" fill="#F0F0F0"/>
<path fill-rule="evenodd" clip-rule="evenodd" d="M32 17.4545H26.1818V14.5455H32V17.4545Z" fill="#F0F0F0"/>
<path fill-rule="evenodd" clip-rule="evenodd" d="M5.81818 17.4545H0V14.5455H5.81818V17.4545Z" fill="#F0F0F0"/>
<path fill-rule="evenodd" clip-rule="evenodd" d="M16 24.7273C20.8199 24.7273 24.7273 20.8199 24.7273 16C24.7273 11.1801 20.8199 7.27273 16 7.27273C11.1801 7.27273 7.27273 11.1801 7.27273 16C7.27273 20.8199 11.1801 24.7273 16 24.7273ZM16 27.6364C22.4266 27.6364 27.6364 22.4266 27.6364 16C27.6364 9.57341 22.4266 4.36364 16 4.36364C9.57341 4.36364 4.36364 9.57341 4.36364 16C4.36364 22.4266 9.57341 27.6364 16 27.6364Z" fill="#F0F0F0"/>
</svg>
