<svg width="32" height="24" viewBox="0 0 32 24" fill="none" xmlns="http://www.w3.org/2000/svg">
<path fill-rule="evenodd" clip-rule="evenodd" d="M29.0909 3.27274H2.90909V20.7273H29.0909V3.27274ZM0 0.363647V23.6364H32V0.363647H0Z" fill="#19A1FF"/>
<path fill-rule="evenodd" clip-rule="evenodd" d="M17.2005 8.66109C16.3046 6.76578 14.3754 5.45456 12.1399 5.45456C9.05016 5.45456 6.54545 7.95926 6.54545 11.049V23.6364H24.7273V16.8671C24.7273 14.3008 22.9993 12.1381 20.6434 11.479C20.1629 11.3446 19.6563 11.2727 19.1329 11.2727C18.6356 11.2727 18.1626 11.3765 17.7343 11.5637V11.049C17.7343 10.1948 17.5428 9.38529 17.2005 8.66109ZM21.8182 20.7273V16.8671C21.8182 15.3841 20.6159 14.1818 19.1329 14.1818C19.044 14.1818 18.9669 14.1998 18.899 14.2294L14.8252 16.0094V11.049C14.8252 9.5659 13.6229 8.36365 12.1399 8.36365C10.6568 8.36365 9.45455 9.5659 9.45455 11.049V20.7273H21.8182Z" fill="#19A1FF"/>
</svg>
