<svg width="32" height="32" viewBox="0 0 32 32" fill="none" xmlns="http://www.w3.org/2000/svg">
<path fill-rule="evenodd" clip-rule="evenodd" d="M27.2558 8.74241L22.6274 4.11408L4.11408 22.6274L8.74241 27.2558C10.4465 28.9599 13.2094 28.9599 14.9135 27.2558L27.2558 14.9135C28.9599 13.2094 28.9599 10.4465 27.2558 8.74241ZM22.6274 0L0 22.6274L6.68537 29.3128C9.52555 32.153 14.1304 32.153 16.9706 29.3128L29.3128 16.9706C32.153 14.1304 32.153 9.52555 29.3128 6.68537L22.6274 0Z" fill="#F0F0F0"/>
<path d="M15.4278 22.6274C14.2917 23.7635 12.4498 23.7635 11.3137 22.6274C10.1776 21.4913 10.1776 19.6494 11.3137 18.5133C12.4498 17.3773 14.2917 17.3773 15.4278 18.5133C16.5639 19.6494 16.5639 21.4913 15.4278 22.6274Z" fill="#F0F0F0"/>
<path d="M23.6559 12.3422C23.0879 12.9103 22.1669 12.9103 21.5989 12.3422C21.0309 11.7742 21.0309 10.8532 21.5989 10.2852C22.1669 9.71715 23.0879 9.71715 23.6559 10.2852C24.224 10.8532 24.224 11.7742 23.6559 12.3422Z" fill="#F0F0F0"/>
<path d="M19.5419 12.3422C18.9738 12.9103 18.0529 12.9103 17.4848 12.3422C16.9168 11.7742 16.9168 10.8532 17.4848 10.2852C18.0529 9.71715 18.9738 9.71715 19.5419 10.2852C20.1099 10.8532 20.1099 11.7742 19.5419 12.3422Z" fill="#F0F0F0"/>
<path d="M23.6559 16.4563C23.0879 17.0243 22.1669 17.0243 21.5989 16.4563C21.0309 15.8883 21.0309 14.9673 21.5989 14.3993C22.1669 13.8312 23.0879 13.8312 23.6559 14.3993C24.224 14.9673 24.224 15.8883 23.6559 16.4563Z" fill="#F0F0F0"/>
<path d="M19.5419 16.4563C18.9738 17.0243 18.0529 17.0243 17.4848 16.4563C16.9168 15.8883 16.9168 14.9673 17.4848 14.3993C18.0529 13.8312 18.9738 13.8312 19.5419 14.3993C20.1099 14.9673 20.1099 15.8883 19.5419 16.4563Z" fill="#F0F0F0"/>
</svg>
